<svg xmlns="http://www.w3.org/2000/svg" width="64" height="64" viewBox="0 0 20 20" fill="none">
  <rect width="20" height="20" rx="4" fill="#15102E"/>
  <g transform="translate(0,0)">
<path d="M9.99997 0.000366211C4.47714 0.000366211 0 4.48686 0 10.0212C0 11.6266 0.37671 13.1438 1.04638 14.4889L3.59367 12.2954C3.99112 11.9532 4.13761 11.4111 4.06246 10.8921C4.0213 10.6077 3.99999 10.317 3.99999 10.0212C3.99999 6.7006 6.68627 4.00871 9.99997 4.00871C11.4299 4.00871 12.743 4.50995 13.7738 5.34666C14.1999 5.69254 14.7719 5.84212 15.2845 5.64606L18.3333 4.48003C16.5418 1.77992 13.4782 0.000366211 9.99997 0.000366211Z" fill="url(#a)"/>
<path d="M10 20C15.5229 20 20 15.5135 20 9.97914C20 8.37378 19.6233 6.8566 18.9536 5.51151L16.4063 7.70494C16.0089 8.04718 15.8624 8.58923 15.9375 9.10831C15.9787 9.39263 16 9.68339 16 9.97914C16 13.2998 13.3137 15.9917 10 15.9917C8.57012 15.9917 7.25704 15.4904 6.22622 14.6537C5.80009 14.3078 5.22814 14.1582 4.71552 14.3543L1.66672 15.5203C3.45825 18.2204 6.52175 20 10 20Z" fill="url(#b)"/>
  </g>
  <defs>
    <linearGradient id="a" x1="0.166" y1="14.241" x2="5.671" y2="2.858" gradientUnits="userSpaceOnUse">
      <stop stop-color="#8B72FF"/><stop offset="1" stop-color="#2D54E3"/>
    </linearGradient>
    <linearGradient id="b" x1="19.834" y1="5.759" x2="14.329" y2="17.143" gradientUnits="userSpaceOnUse">
      <stop stop-color="#8B72FF"/><stop offset="1" stop-color="#2D54E3"/>
    </linearGradient>
  </defs>
</svg>
